<?xml version="1.0" encoding="iso-8859-1"?>
<!-- Generator: Adobe Illustrator 19.0.0, SVG Export Plug-In . SVG Version: 6.00 Build 0)  -->
<svg xmlns="http://www.w3.org/2000/svg" xmlns:xlink="http://www.w3.org/1999/xlink" version="1.1" id="Capa_1" x="0px" y="0px" viewBox="0 0 512.001 512.001" style="enable-background:new 0 0 512.001 512.001;" xml:space="preserve" width="64px" height="64px">
<g>
	<g>
		<path d="M199.899,158.087c-8.61-0.66-16.985,1.789-23.835,6.915c-14.754-11.022-35.805-8.866-47.975,5.313    c-11.332,13.205-11.438,32.447-0.252,45.751c3.283,3.904,3.043,3.034,38.283,33.477c5.761,4.944,14.125,4.944,19.889,0    l34.226-29.374c1.443-1.238,2.807-2.617,4.057-4.103C242.91,193.919,228.377,160.261,199.899,158.087z M212.811,206.41    c-0.728,0.865-1.518,1.664-2.347,2.376c-36.208,30.94-34.241,29.668-34.575,29.373c-36.333-31.305-34.637-29.447-36.569-31.746    c-6.436-7.654-6.372-18.727,0.152-26.329c7.331-8.544,20.211-9.479,28.704-2.189l3.004,2.577c2.811,2.41,6.958,2.411,9.769-0.001    l3.003-2.577c8.516-7.309,21.395-6.327,28.703,2.19C219.179,187.686,219.244,198.759,212.811,206.41z" fill="#000000"/>
	</g>
</g>
<g>
	<g>
		<path d="M122.385,94.401c-6.778-7.897-18.104-9.643-26.832-4.686c-8.729-4.955-20.056-3.211-26.833,4.686    c-7.766,9.048-6.677,22.49,2.305,30.217c15.494,12.349,17.573,17.45,24.526,17.45c6.944,0,8.685-4.823,24.529-17.451    C129.015,116.948,130.192,103.497,122.385,94.401z M110.309,113.234L95.551,125.9c-15.378-13.239-14.868-12.668-15.5-13.42    c-3.526-4.192-0.495-10.552,4.939-10.552c3.278,0,4.708,2.175,5.674,2.837c2.811,2.414,6.961,2.414,9.771,0.002l1.501-1.289    c2.69-2.305,6.755-1.998,9.063,0.692C113.336,106.891,113.003,110.929,110.309,113.234z" fill="#000000"/>
	</g>
</g>
<g>
	<g>
		<circle cx="150.368" cy="63.721" r="9.41" fill="#000000"/>
	</g>
</g>
<g>
	<g>
		<circle cx="178.599" cy="123.897" r="9.411" fill="#000000"/>
	</g>
</g>
<g>
	<g>
		<circle cx="80.464" cy="184.08" r="9.41" fill="#000000"/>
	</g>
</g>
<g>
	<g>
		<path d="M510.007,405.704l-56.725-104.289c29.187,3.621,50.473-27.421,36.467-53.414c-5.584-10.366-15.506-16.927-26.321-18.667    c4.495-9.99,4.472-21.883-1.113-32.25c-14.152-26.261-52.197-25.131-64.91,1.599l-17.885-32.882    c-1.979-3.638-6.533-4.985-10.174-3.005c-3.639,1.979-4.983,6.534-3.005,10.174l25.881,47.583l-53.306,29.357    c-66.065-121.962-64.076-116.792-63.714-118.026c0.342-1.151-2.091,0.928,51.632-28.565c0.676-0.369,1.562-0.108,1.931,0.57    l20.845,38.323c1.979,3.637,6.531,4.984,10.174,3.005c3.639-1.979,4.983-6.534,3.005-10.174l-20.846-38.323    c-4.328-7.955-14.32-10.905-22.276-6.58l-50.955,27.716c-7.957,4.328-10.91,14.318-6.581,22.276    c7.51,13.807,64.176,117.989,73.553,135.228c-82.28,0-164.64,0-247.128,0c-4.143,0-7.5,3.357-7.5,7.5c0,4.143,3.357,7.5,7.5,7.5    h41.189v152.326H15.68c-0.355,0-0.679-0.324-0.679-0.68V292.737c0-1.311,1.066-2.377,2.377-2.377h36.175    c4.143,0,7.5-3.357,7.5-7.5c0-4.143-3.357-7.5-7.5-7.5H17.378C7.795,275.359,0,283.154,0,292.737v149.27    c0,8.646,7.033,15.681,15.68,15.681c13.04,0,306.688,0,322.4,0c8.646,0,15.681-7.034,15.681-15.681V308.595l76.433,140.522    c2.976,5.469,8.628,8.573,14.456,8.573c2.648-0.001,5.334-0.642,7.82-1.993l50.956-27.717    C511.383,423.652,514.334,413.663,510.007,405.704z M153.214,442.686h-8.47V290.36h8.47V442.686z M177.07,442.686h-8.855V290.36    h8.855V442.686z M338.08,442.686H215.543v-27.995c0-4.143-3.357-7.5-7.5-7.5c-4.143,0-7.5,3.357-7.5,7.5v27.995h-8.47V290.36h8.47    v89.33c0,4.143,3.357,7.5,7.5,7.5c4.143,0,7.5-3.357,7.5-7.5v-89.33H338.76C338.417,451.056,339.451,442.686,338.08,442.686z     M463.838,244.758c11.337,3.398,17.765,15.324,14.367,26.665c-4.971,16.583-26.824,20.851-37.498,6.869l-11.861-21.806    l18.684-10.068C452.565,243.706,458.356,243.116,463.838,244.758z M430.218,192.945c22.399,0,29.563,29.833,10.195,40.27    l-18.736,10.096L411,223.68C404.121,209.48,414.51,192.945,430.218,192.945z M350.347,270.924l-4.263-7.837l53.254-29.328    l3.892,7.224L350.347,270.924z M357.516,284.103l52.832-29.911c0.065,0.122,4.391,8.151,4.201,7.798l-52.801,29.894    L357.516,284.103z M368.917,305.063l52.75-29.865c1.144,2.119,3.393,6.311,4.148,7.678l-53.068,29.226L368.917,305.063z     M496.257,414.802l-50.956,27.717c-0.677,0.368-1.563,0.109-1.932-0.57l-63.457-116.666l53.306-29.357    C498.776,417.863,498.722,413.463,496.257,414.802z" fill="#000000"/>
	</g>
</g>
<g>
</g>
<g>
</g>
<g>
</g>
<g>
</g>
<g>
</g>
<g>
</g>
<g>
</g>
<g>
</g>
<g>
</g>
<g>
</g>
<g>
</g>
<g>
</g>
<g>
</g>
<g>
</g>
<g>
</g>
</svg>
