<?xml version="1.0" encoding="iso-8859-1"?>
<!-- Generator: Adobe Illustrator 19.0.0, SVG Export Plug-In . SVG Version: 6.00 Build 0)  -->
<svg xmlns="http://www.w3.org/2000/svg" xmlns:xlink="http://www.w3.org/1999/xlink" version="1.1" id="Capa_1" x="0px" y="0px" viewBox="0 0 504 504" style="enable-background:new 0 0 504 504;" xml:space="preserve" width="64px" height="64px">
<g>
	<g>
		<g>
			<path d="M160,326.5v112c0,4.418,3.582,8,8,8h160c4.418,0,8-3.582,8-8v-112h-16v104H176v-104H160z" fill="#000000"/>
			<path d="M336,230.5v-72c0-4.418-3.582-8-8-8h-32v16h24v64H336z" fill="#000000"/>
			<path d="M176,166.5h24v-16h-32c-4.418,0-8,3.582-8,8v72h16V166.5z" fill="#000000"/>
			<path d="M362.688,118.972l-64-22.864l-5.376,15.064L352,132.14V462.5H144V132.14l66.688-23.816l-5.376-15.064l-72,25.712     c-3.183,1.135-5.309,4.149-5.312,7.528v344c0,4.418,3.582,8,8,8h224c4.418,0,8-3.582,8-8v-344     C367.997,123.121,365.871,120.107,362.688,118.972z" fill="#000000"/>
			<rect x="240" y="126.5" width="16" height="16" fill="#000000"/>
			<path d="M104,262.5c-22.08-0.026-39.974-17.92-40-40c0-4.418-3.582-8-8-8s-8,3.582-8,8c-0.026,22.08-17.92,39.974-40,40     c-4.418,0-8,3.582-8,8s3.582,8,8,8c22.08,0.026,39.974,17.92,40,40c0,4.418,3.582,8,8,8s8-3.582,8-8     c0.026-22.08,17.92-39.974,40-40c4.418,0,8-3.582,8-8S108.418,262.5,104,262.5z M56,289.7c-4.745-7.865-11.335-14.455-19.2-19.2     c7.865-4.745,14.455-11.335,19.2-19.2c4.745,7.865,11.335,14.455,19.2,19.2C67.335,275.245,60.745,281.835,56,289.7z" fill="#000000"/>
			<path d="M496,262.5c-22.08-0.026-39.974-17.92-40-40c0-4.418-3.582-8-8-8s-8,3.582-8,8c-0.026,22.08-17.92,39.974-40,40     c-4.418,0-8,3.582-8,8s3.582,8,8,8c22.08,0.026,39.974,17.92,40,40c0,4.418,3.582,8,8,8s8-3.582,8-8     c0.026-22.08,17.92-39.974,40-40c4.418,0,8-3.582,8-8S500.418,262.5,496,262.5z M448,289.7c-4.745-7.865-11.335-14.455-19.2-19.2     c7.865-4.745,14.455-11.335,19.2-19.2c4.745,7.865,11.335,14.455,19.2,19.2C459.335,275.245,452.745,281.835,448,289.7z" fill="#000000"/>
			<path d="M200,78.5h16v80c0,4.418,3.582,8,8,8h48c4.418,0,8-3.582,8-8v-80h16c2.43,0.001,4.729-1.103,6.248-3l32-40l-12.496-10     l-29.592,37H280v-24c0-4.418-3.582-8-8-8h-48c-4.418,0-8,3.582-8,8v24h-11.472l-21.672-36.12l-13.712,8.24l24,40     C194.59,77.027,197.192,78.499,200,78.5z M232,46.5h32v32h-32V46.5z M232,94.5h32v8h-32V94.5z M232,118.5h32v32h-32V118.5z" fill="#000000"/>
			<path d="M254.28,194.14c-1.399-2.682-4.176-4.36-7.2-4.352c-3.044,0.047-5.798,1.818-7.104,4.568l-20.984,44.2l-48.296,7.768     c-4.361,0.706-7.325,4.814-6.618,9.176c0.28,1.731,1.122,3.322,2.394,4.528l35.544,33.6L194.4,341.98     c-0.68,4.366,2.307,8.456,6.673,9.137c0.407,0.063,0.819,0.095,1.231,0.095c1.339,0.003,2.657-0.333,3.832-0.976l42.952-23.424     L292.8,348.9c3.941,1.997,8.755,0.42,10.752-3.522c0.794-1.567,1.05-3.352,0.728-5.078l-9-48.088l34.504-34.68     c3.128-3.12,3.135-8.186,0.014-11.314c-1.255-1.258-2.892-2.062-4.654-2.286l-48.552-6.232L254.28,194.14z M280.928,283.924     c-1.853,1.864-2.673,4.52-2.192,7.104l6.792,36.296l-32.928-16.68c-2.348-1.194-5.134-1.155-7.448,0.104l-32.408,17.68     l5.688-36.472c0.403-2.609-0.507-5.249-2.432-7.056l-26.8-25.36l36.448-5.864c2.597-0.419,4.823-2.088,5.952-4.464l15.832-33.344     l16.84,32.848c1.2,2.344,3.477,3.948,6.088,4.288l36.608,4.744L280.928,283.924z" fill="#000000"/>
		</g>
	</g>
</g>
<g>
</g>
<g>
</g>
<g>
</g>
<g>
</g>
<g>
</g>
<g>
</g>
<g>
</g>
<g>
</g>
<g>
</g>
<g>
</g>
<g>
</g>
<g>
</g>
<g>
</g>
<g>
</g>
<g>
</g>
</svg>
